<svg width="24" height="24" viewBox="0 0 24 24" fill="none" xmlns="http://www.w3.org/2000/svg">
  <path d="M5.24609 6.75C5.24609 4.95979 5.95761 3.2429 7.2241 1.97703C8.4906 0.711159 10.2083 0 11.9994 0C13.7905 0 15.5083 0.711159 16.7748 1.97703C18.0413 3.2429 18.7528 4.95979 18.7528 6.75C18.7528 8.54021 18.0413 10.2571 16.7748 11.523C15.5083 12.7888 13.7905 13.5 11.9994 13.5C10.2083 13.5 8.4906 12.7888 7.2241 11.523C5.95761 10.2571 5.24609 8.54021 5.24609 6.75ZM11.9994 3.75C12.4121 3.75 12.7498 3.4125 12.7498 3C12.7498 2.5875 12.4121 2.25 11.9994 2.25C9.51384 2.25 7.49721 4.26562 7.49721 6.75C7.49721 7.1625 7.83488 7.5 8.24758 7.5C8.66029 7.5 8.99795 7.1625 8.99795 6.75C8.99795 5.09531 10.3439 3.75 11.9994 3.75ZM10.4987 22.5V14.8641C11.491 15.0453 12.5079 15.0453 13.5002 14.8641V22.5C13.5002 23.3297 12.8295 24 11.9994 24C11.1693 24 10.4987 23.3297 10.4987 22.5Z" fill="#111111"/>
</svg>
