<svg version="1.1" id="Calque_1" xmlns="http://www.w3.org/2000/svg" xmlns:xlink="http://www.w3.org/1999/xlink" x="0px" y="0px" viewBox="0 0 234 216" style="enable-background:new 0 0 234 216;" xml:space="preserve">
  <path d="M112,0c4,0,8,0,12,0c9,1.4,18.1,2.2,27,4.3c52.7,12.2,84.7,58.1,82.1,107c-2.2,41.7-21.5,72.2-58.3,91.6 c-5.8,3-12,5.2-18.4,7.9c-1.6-6.8-3.1-12.5-4.2-18.4c-1.7-8.3-0.4-16.1,6-22.1c18.1-16.9,23-38.3,17.2-60.8 c-6.5-25.1-16.5-49.4-25.2-74c-0.3-1-1.8-2.2-2.7-2.3c-6.4-0.2-12.9-0.1-19.8-0.1c0.7,3,1.1,5.3,1.6,7.5c5,20.1,10.1,40.3,15.1,60.4 c2,8-2,13.7-9.8,13.7c-2.8-12.2-5.6-24.4-8.4-36.7c-3.8-16.5-7.4-33-11.3-49.5c-0.4-1.7-1.8-4.3-2.9-4.4c-5.9-0.4-11.9-0.2-18.3-0.2	c6.3,38,12.5,75.3,18.7,112.6c-9.1,0.7-15-3.4-16.2-11.3c-2.8-19.1-5.4-38.2-8.1-57.3c-1.3-9.3-2.7-18.6-4.1-28 c-6.9,0-13.4,0-20.2,0c0,10-0.1,19.6,0,29.2c0.3,21.3-0.2,42.7,1.3,63.9c1.7,24.5,17.1,41.8,40.4,48.2c9.7,2.6,15.2,9,17.3,18.6	c1.1,5.3,2.1,10.7,3.2,16.1c-2.3,0-4.7,0-7,0c-1.6-0.3-3.2-0.9-4.8-1c-17.6-0.9-34.5-4.5-50.8-11.1c-30.7-12.4-51.9-33.5-59.9-66.4 C1.9,130.5,1.2,123.2,0,116c0-4.7,0-9.3,0-14c0.5-2.9,0.9-5.8,1.4-8.7C9.3,45.5,42.9,11.4,90.4,3C97.6,1.8,104.8,1,112,0z"/>
</svg>