<svg width="115" height="26" viewBox="0 0 115 26" fill="none" xmlns="http://www.w3.org/2000/svg">
  <path d="M20.2936 0.5H5.56471C2.50308 0.5 0 2.92 0 5.88V20.1C0 23.08 2.50308 25.5 5.56471 25.5H20.2729C23.3552 25.5 25.8376 23.08 25.8376 20.12V5.88C25.8583 2.92 23.3552 0.5 20.2936 0.5ZM19.1145 13.44L16.8803 14.52C15.846 15.02 14.9978 15.84 14.4807 16.84L13.3843 18.98C13.1981 19.34 12.6809 19.34 12.4947 18.98L11.3777 16.82C10.8605 15.82 10.0123 15 8.978 14.5L6.74385 13.42C6.37149 13.24 6.37149 12.72 6.74385 12.56L8.95732 11.5C9.99165 11 10.8398 10.18 11.357 9.18L12.474 7.02C12.6602 6.66 13.1981 6.66 13.3636 7.02L14.4807 9.16C14.9978 10.16 15.846 10.98 16.8803 11.48L19.0938 12.56C19.4868 12.74 19.4868 13.26 19.1145 13.44Z" fill="#6624FF"/>
  <path d="M42.7387 2.53999H44.8902V5.35999H43.6696C42.2629 5.35999 41.7665 6.05999 41.7665 7.33999V8.17999H44.8074V11.04H41.7665V23.16H37.9394V11.04H35.7673V8.17999H37.9394V6.91999C37.9394 3.73999 39.884 2.53999 42.7387 2.53999Z" fill="black"/>
  <path d="M44.3937 15.68C44.3937 10.26 48.1793 7.89999 52.0891 7.89999C55.9575 7.89999 59.7845 10.26 59.7845 15.68C59.7845 21.1 55.9782 23.46 52.0891 23.46C48.1793 23.44 44.3937 21.08 44.3937 15.68ZM52.0891 20.36C54.3233 20.36 56.1644 18.92 56.1644 15.66C56.1644 12.4 54.3233 10.96 52.0891 10.96C49.8343 10.96 47.9725 12.4 47.9725 15.66C47.9725 18.92 49.8343 20.36 52.0891 20.36Z" fill="black"/>
  <path d="M64.5425 23.16H60.7361V8.17999H64.5425V11.76H64.6252C65.1217 9.73999 66.5904 8.07999 69.2177 8.07999C69.5693 8.07999 69.9831 8.09999 70.4175 8.21999V11.34C69.9624 11.28 69.6107 11.26 69.2177 11.26C66.6525 11.26 64.5425 12.7 64.5425 16.22V23.16Z" fill="black"/>
  <path d="M71.0588 2.99999H74.8651V14.9L81.1745 8.17999H85.3946L79.0438 14.6L86.2221 23.16H82.002L76.7476 16.94L74.8651 18.84V23.16H71.0588V2.99999Z" fill="black"/>
  <path d="M84.8361 15.64C84.8361 10.12 88.3735 7.89999 92.4281 7.89999C96.4206 7.89999 99.6891 10.04 99.6891 15.5C99.6891 16.02 99.6684 16.3 99.6063 16.62H88.4355C88.6838 19.42 90.1319 20.62 92.5729 20.62C94.5174 20.62 95.6345 19.9 96.0896 18.46H99.4822C98.6547 21.86 95.9448 23.44 92.4901 23.44C88.4562 23.44 84.8361 21.24 84.8361 15.64ZM96.0896 14.38C96.0069 12.28 94.8691 10.72 92.366 10.72C90.1319 10.72 88.7252 11.92 88.4562 14.38H96.0896Z" fill="black"/>
  <path d="M100.041 15.64C100.041 10.12 103.578 7.89999 107.633 7.89999C111.625 7.89999 114.894 10.04 114.894 15.5C114.894 16.02 114.873 16.3 114.811 16.62H103.64C103.888 19.42 105.337 20.62 107.778 20.62C109.722 20.62 110.839 19.9 111.294 18.46H114.687C113.859 21.86 111.149 23.44 107.695 23.44C103.682 23.44 100.041 21.24 100.041 15.64ZM111.315 14.38C111.232 12.28 110.094 10.72 107.591 10.72C105.357 10.72 103.951 11.92 103.682 14.38H111.315Z" fill="black"/>
</svg>
