<svg width="32" height="33" viewBox="0 0 32 33" fill="none" xmlns="http://www.w3.org/2000/svg">
  <path d="M21.7868 3.56299C26.3068 3.56299 29.3335 6.73632 29.3335 11.4563V22.351C29.3335 27.0563 26.3068 30.2297 21.7868 30.2297H10.2268C5.70679 30.2297 2.66679 27.0563 2.66679 22.351V11.4563C2.66679 6.73632 5.70679 3.56299 10.2268 3.56299H21.7868ZM21.5735 12.8963C21.1201 12.443 20.3735 12.443 19.9201 12.8963L14.4135 18.403L12.0801 16.0697C11.6268 15.6163 10.8801 15.6163 10.4268 16.0697C9.97346 16.523 9.97346 17.2563 10.4268 17.723L13.6001 20.883C13.8268 21.1097 14.1201 21.2163 14.4135 21.2163C14.7201 21.2163 15.0135 21.1097 15.2401 20.883L21.5735 14.5497C22.0268 14.0963 22.0268 13.363 21.5735 12.8963Z" fill="#6624FF"/>
</svg>
