<svg width="48" height="49" viewBox="0 0 48 49" fill="none" xmlns="http://www.w3.org/2000/svg">
  <path fill-rule="evenodd" clip-rule="evenodd" d="M39.9238 13.1205C39.9238 9.88253 37.2898 7.24854 34.0518 7.24854H13.9578C10.7198 7.24854 8.08582 9.88253 8.08582 13.1205V26.5625H39.9238V13.1205Z" fill="white"/>
  <path fill-rule="evenodd" clip-rule="evenodd" d="M26.622 36.2811H21.39C20.562 36.2811 19.89 35.6091 19.89 34.7811C19.89 33.9531 20.562 33.2811 21.39 33.2811H26.622C27.45 33.2811 28.122 33.9531 28.122 34.7811C28.122 35.6091 27.45 36.2811 26.622 36.2811ZM42.684 34.9171L40.224 29.5631H7.78596L5.29196 34.9931C4.76596 36.4331 4.97596 38.0411 5.85396 39.2971C6.73196 40.5531 8.16996 41.3031 9.70196 41.3031H38.306C39.838 41.3031 41.276 40.5531 42.154 39.2971C43.032 38.0411 43.242 36.4311 42.684 34.9171Z" fill="white"/>
</svg>
