<svg width="48" height="49" viewBox="0 0 48 49" fill="none" xmlns="http://www.w3.org/2000/svg">
  <path fill-rule="evenodd" clip-rule="evenodd" d="M34.9101 25.6362H24.5037C23.4746 25.6362 22.6374 24.7991 22.6374 23.77V13.3674C22.6374 12.634 22.3206 11.9293 21.7696 11.4397C21.2128 10.9444 20.4678 10.7082 19.7325 10.8023C15.3799 11.3284 11.3959 13.6727 8.80007 17.2362C6.16967 20.8516 5.19815 25.3041 6.06983 29.7719C7.27751 36.0004 12.2714 40.9981 18.4961 42.2077C19.5635 42.4132 20.6291 42.5149 21.6813 42.5149C25.047 42.5149 28.288 41.4743 31.0374 39.4717C34.599 36.8817 36.9472 32.9015 37.479 28.5527C37.5693 27.8116 37.337 27.0647 36.8435 26.5079C36.352 25.953 35.6474 25.6362 34.9101 25.6362Z" fill="white"/>
  <path fill-rule="evenodd" clip-rule="evenodd" d="M42.2208 18.8901V18.8863C41.3414 12.1989 36.0652 6.92278 29.3971 6.0607C28.6656 5.95702 27.9225 6.18166 27.36 6.67126C26.7916 7.1647 26.4672 7.87702 26.4672 8.6239V19.2434C26.4672 20.6623 27.6211 21.8143 29.0438 21.8143H39.6537C40.3968 21.8143 41.1033 21.4936 41.5948 20.9349C42.0883 20.3762 42.3168 19.6313 42.2208 18.8901Z" fill="white"/>
</svg>
